<svg width="14" height="14" viewBox="0 0 14 14" fill="none" xmlns="http://www.w3.org/2000/svg">
<g clip-path="url(#clip0_751_4490)">
<path fill-rule="evenodd" clip-rule="evenodd" d="M3.14109 1.60416C2.61434 1.60416 2.18734 2.03116 2.18734 2.55791V6.56249H12.8332C12.9492 6.56249 13.0605 6.60858 13.1425 6.69063C13.2246 6.77268 13.2707 6.88396 13.2707 6.99999C13.2707 7.11602 13.2246 7.2273 13.1425 7.30935C13.0605 7.39139 12.9492 7.43749 12.8332 7.43749H12.6768C12.6809 7.46374 12.6833 7.48999 12.685 7.51682C12.6873 7.55065 12.6873 7.58682 12.6873 7.62182V7.64457C12.6873 7.86332 12.6873 7.99165 12.678 8.13457C12.5952 9.4389 11.8905 10.6441 10.8691 11.4316C10.8771 11.4444 10.8845 11.4576 10.8913 11.4712L11.4746 12.6379C11.5008 12.6894 11.5165 12.7455 11.5209 12.8031C11.5253 12.8606 11.5183 12.9185 11.5002 12.9733C11.4821 13.0282 11.4534 13.0789 11.4156 13.1226C11.3778 13.1662 11.3318 13.202 11.2801 13.2278C11.2285 13.2536 11.1722 13.2689 11.1146 13.2728C11.057 13.2768 10.9992 13.2693 10.9445 13.2508C10.8898 13.2323 10.8393 13.2031 10.7959 13.165C10.7525 13.1269 10.7171 13.0806 10.6918 13.0287L10.1271 11.9C9.54351 12.1982 8.89938 12.3589 8.24409 12.3696H8.24C7.80834 12.3859 7.386 12.3958 6.99984 12.3958C6.61367 12.3958 6.19134 12.3859 5.75967 12.3696H5.75559C5.1003 12.3589 4.45616 12.1982 3.87259 11.9L3.30792 13.0287C3.28253 13.0806 3.24713 13.1269 3.20375 13.165C3.16038 13.2031 3.10989 13.2323 3.05519 13.2508C3.0005 13.2693 2.94268 13.2768 2.88508 13.2728C2.82747 13.2689 2.77122 13.2536 2.71956 13.2278C2.6679 13.202 2.62186 13.1662 2.58409 13.1226C2.54632 13.0789 2.51756 13.0282 2.49948 12.9733C2.4814 12.9185 2.47436 12.8606 2.47875 12.8031C2.48315 12.7455 2.4989 12.6894 2.52509 12.6379L3.10842 11.4712C3.11512 11.4576 3.12252 11.4444 3.13059 11.4316C2.10917 10.6441 1.40392 9.4389 1.32167 8.13457C1.31325 7.97138 1.31014 7.80796 1.31234 7.64457V7.43749H1.1665C1.05047 7.43749 0.939192 7.39139 0.857145 7.30935C0.775098 7.2273 0.729004 7.11602 0.729004 6.99999C0.729004 6.88396 0.775098 6.77268 0.857145 6.69063C0.939192 6.60858 1.05047 6.56249 1.1665 6.56249H1.31234V2.55791C1.3123 2.13286 1.46033 1.72107 1.73097 1.39332C2.00162 1.06558 2.37797 0.842341 2.79536 0.761985C3.21274 0.681628 3.64508 0.749171 4.01807 0.953004C4.39105 1.15684 4.68139 1.48423 4.83917 1.87891L4.90334 2.03932C5.38208 1.91711 5.88778 1.95648 6.34184 2.15132C6.62447 2.27314 6.88 2.45003 7.09353 2.67167C7.30706 2.89332 7.4743 3.15527 7.5855 3.44224C7.62704 3.54792 7.62585 3.66561 7.5822 3.77044C7.53855 3.87527 7.45585 3.95902 7.35159 4.00399L3.87492 5.50082C3.82111 5.52407 3.76317 5.53626 3.70456 5.53668C3.64594 5.53711 3.58784 5.52574 3.5337 5.50327C3.47956 5.4808 3.43048 5.44768 3.3894 5.40587C3.34831 5.36406 3.31604 5.31443 3.2945 5.25991C3.06525 4.67673 3.06943 4.02766 3.30617 3.44749C3.47244 3.03421 3.7511 2.67574 4.11059 2.41266L4.02659 2.20382C3.95582 2.02682 3.83363 1.87509 3.67579 1.7682C3.51796 1.66131 3.33171 1.60417 3.14109 1.60416ZM2.38159 7.43749H2.32325C2.28627 7.43987 2.2516 7.4563 2.22633 7.48341C2.20106 7.51052 2.18711 7.54626 2.18734 7.58332V7.63174C2.18734 7.86624 2.18734 7.96657 2.19492 8.07915C2.30284 9.78366 3.767 11.3038 5.46567 11.4759C5.57942 11.4876 5.64242 11.4893 5.79234 11.4952C6.217 11.5109 6.62825 11.5208 6.99984 11.5208C7.37142 11.5208 7.78267 11.5109 8.20734 11.4952C8.35725 11.4893 8.42025 11.487 8.534 11.4753C10.2327 11.3038 11.6968 9.78366 11.8053 8.07915C11.8123 7.96657 11.8123 7.86624 11.8123 7.63174V7.57399C11.8123 7.57282 11.8123 7.57282 11.8123 7.57399C11.81 7.53861 11.7948 7.5053 11.7697 7.48029C11.7446 7.45527 11.7112 7.44026 11.6758 7.43807C11.6758 7.43807 11.677 7.43807 11.6758 7.43807H11.6665L11.6187 7.43749H2.38159ZM5.99825 2.95632C5.8153 2.87787 5.61752 2.84001 5.41853 2.84534C5.21954 2.85068 5.02407 2.89909 4.84559 2.98724C4.51308 3.1511 4.25325 3.43256 4.11642 3.77707C4.02422 4.00356 3.98626 4.24847 4.00559 4.49224L6.56059 3.39207C6.41314 3.20123 6.21937 3.05123 5.99767 2.95632" fill="#060606"/>
</g>
<defs>
<clipPath id="clip0_751_4490">
<rect width="14" height="14" fill="white"/>
</clipPath>
</defs>
</svg>
