<svg width="14" height="14" viewBox="0 0 14 14" fill="none" xmlns="http://www.w3.org/2000/svg">
<path d="M1.1665 11.0832V7.58317C1.1665 7.32067 1.21998 7.08248 1.32692 6.86859C1.43387 6.6547 1.57484 6.46512 1.74984 6.29984V4.6665C1.74984 4.18039 1.91998 3.7672 2.26025 3.42692C2.60053 3.08664 3.01373 2.9165 3.49984 2.9165H5.83317C6.05678 2.9165 6.26581 2.95792 6.46025 3.04075C6.6547 3.12359 6.83456 3.23773 6.99984 3.38317C7.16512 3.23734 7.34498 3.1232 7.53942 3.04075C7.73387 2.95831 7.94289 2.91689 8.1665 2.9165H10.4998C10.9859 2.9165 11.3991 3.08664 11.7394 3.42692C12.0797 3.7672 12.2498 4.18039 12.2498 4.6665V6.29984C12.4248 6.46512 12.5658 6.6547 12.6728 6.86859C12.7797 7.08248 12.8332 7.32067 12.8332 7.58317V11.0832H11.6665V9.9165H2.33317V11.0832H1.1665ZM7.58317 5.83317H11.0832V4.6665C11.0832 4.50123 11.0272 4.36278 10.9152 4.25117C10.8032 4.13956 10.6647 4.08356 10.4998 4.08317H8.1665C8.00123 4.08317 7.86278 4.13917 7.75117 4.25117C7.63956 4.36317 7.58356 4.50162 7.58317 4.6665V5.83317ZM2.9165 5.83317H6.4165V4.6665C6.4165 4.50123 6.3605 4.36278 6.2485 4.25117C6.1365 4.13956 5.99806 4.08356 5.83317 4.08317H3.49984C3.33456 4.08317 3.19612 4.13917 3.0845 4.25117C2.97289 4.36317 2.91689 4.50162 2.9165 4.6665V5.83317ZM2.33317 8.74984H11.6665V7.58317C11.6665 7.41789 11.6105 7.27945 11.4985 7.16784C11.3865 7.05623 11.2481 7.00023 11.0832 6.99984H2.9165C2.75123 6.99984 2.61278 7.05584 2.50117 7.16784C2.38956 7.27984 2.33356 7.41828 2.33317 7.58317V8.74984Z" fill="#060606"/>
</svg>
