<svg width="24" height="24" viewBox="0 0 24 24" fill="none" xmlns="http://www.w3.org/2000/svg">
<path d="M12.0003 3.66663C7.39795 3.66663 3.66699 7.39759 3.66699 12C3.66699 16.6023 7.39795 20.3333 12.0003 20.3333C16.6027 20.3333 20.3337 16.6023 20.3337 12C20.3337 7.39759 16.6027 3.66663 12.0003 3.66663Z" fill="#007AFF"/>
<path fill-rule="evenodd" clip-rule="evenodd" d="M15.0896 9.74408C15.415 10.0695 15.415 10.5972 15.0896 10.9226L11.7562 14.2559C11.4308 14.5814 10.9032 14.5814 10.5777 14.2559L8.91107 12.5893C8.58563 12.2638 8.58563 11.7362 8.91107 11.4107C9.23651 11.0853 9.76414 11.0853 10.0896 11.4107L11.167 12.4882L13.9111 9.74408C14.2365 9.41864 14.7641 9.41864 15.0896 9.74408Z" fill="white"/>
</svg>
