<svg width="280" height="174" viewBox="0 0 280 174" fill="none" xmlns="http://www.w3.org/2000/svg">
<rect width="280" height="174" rx="10" fill="#C4C4C4"/>
<g opacity="0.3" clip-path="url(#clip0_1_2)">
<path d="M120.242 76.3363C119.708 77.1341 119.397 78.092 119.397 79.1241C119.397 81.8997 121.647 84.1496 124.423 84.1496C125.455 84.1496 126.412 83.8394 127.21 83.305L120.242 76.3363Z" fill="black"/>
<path d="M144.526 80.7994L140.089 86.7083L154.282 100.902H159.602L144.526 80.7994ZM129.449 87.5001L119.397 100.902H144.807L136.032 92.1266L134.474 94.2008L129.449 87.5001Z" fill="black"/>
<path d="M114.077 60.6967L120.778 67.3974H166.303L166.31 107.602H160.983L167.566 114.185C170.658 113.592 173.004 110.865 173.004 107.602V67.3974C173.004 63.702 169.999 60.6967 166.303 60.6967H114.077ZM107.318 63.4122C106.49 64.5278 105.996 65.9045 105.996 67.3974V107.602C105.996 111.298 109.001 114.303 112.697 114.303H158.209L151.508 107.602H112.697V68.7913L107.318 63.4122Z" fill="black"/>
<path d="M105 55.3691L107.369 53L174 119.631L171.631 122L105 55.3691Z" fill="black"/>
</g>
<defs>
<clipPath id="clip0_1_2">
<rect width="69" height="69" fill="white" transform="translate(105 53)"/>
</clipPath>
</defs>
</svg>
