<svg width="22" height="22" viewBox="0 0 22 22" fill="none" xmlns="http://www.w3.org/2000/svg">
<path d="M7.37682 14.6163L1.71997 20.2732M10.6945 5.64185L9.13363 7.20273C9.0063 7.33006 8.94264 7.39372 8.87011 7.4443C8.80573 7.4892 8.73629 7.52637 8.66321 7.55503C8.58089 7.58732 8.49261 7.60498 8.31604 7.64029L4.65158 8.37318C3.69927 8.56364 3.22312 8.65887 3.00036 8.90993C2.80629 9.12864 2.71768 9.42133 2.75783 9.71095C2.80392 10.0434 3.14728 10.3868 3.83399 11.0735L10.9197 18.1592C11.6064 18.8459 11.9498 19.1893 12.2823 19.2354C12.5719 19.2755 12.8646 19.1869 13.0833 18.9929C13.3343 18.7701 13.4296 18.2939 13.62 17.3416L14.3529 13.6772C14.3882 13.5006 14.4059 13.4123 14.4382 13.33C14.4668 13.2569 14.504 13.1875 14.5489 13.1231C14.5995 13.0506 14.6632 12.9869 14.7905 12.8596L16.3514 11.2987C16.4328 11.2173 16.4735 11.1766 16.5182 11.1411C16.558 11.1095 16.6001 11.081 16.6441 11.0558C16.6937 11.0275 16.7466 11.0048 16.8525 10.9594L19.3468 9.89043C20.0745 9.57856 20.4384 9.42262 20.6037 9.17064C20.7482 8.95028 20.7999 8.68178 20.7475 8.42351C20.6877 8.12816 20.4077 7.84825 19.8479 7.28842L14.7048 2.14529C14.145 1.58546 13.865 1.30555 13.5697 1.24568C13.3114 1.19332 13.0429 1.24503 12.8226 1.38956C12.5706 1.55484 12.4147 1.91869 12.1028 2.64639L11.0338 5.14075C10.9884 5.24656 10.9657 5.29947 10.9374 5.34908C10.9122 5.39316 10.8837 5.43525 10.8522 5.47499C10.8166 5.51974 10.7759 5.56044 10.6945 5.64185Z" stroke="#007AFF" stroke-width="2" stroke-linecap="round" stroke-linejoin="round"/>
</svg>
