<svg width="24" height="24" viewBox="0 0 24 24" fill="none" xmlns="http://www.w3.org/2000/svg">
<g clip-path="url(#clip0_491_8605)">
<path d="M12.8401 1.86871L15.5658 7.37157C15.6278 7.51124 15.7254 7.63222 15.8487 7.72246C15.972 7.81269 16.1168 7.86903 16.2687 7.88586L22.2858 8.77728C22.4601 8.79968 22.6243 8.87118 22.7594 8.98344C22.8945 9.09569 22.9949 9.24407 23.0488 9.41125C23.1028 9.57842 23.108 9.75749 23.064 9.92754C23.0199 10.0976 22.9284 10.2516 22.8001 10.3716L18.463 14.6744C18.3523 14.7778 18.2692 14.9073 18.2213 15.051C18.1734 15.1947 18.1622 15.3481 18.1887 15.4973L19.2344 21.5487C19.2647 21.7226 19.2456 21.9015 19.1792 22.065C19.1128 22.2286 19.0019 22.3702 18.859 22.4738C18.7161 22.5774 18.547 22.6388 18.3709 22.651C18.1948 22.6633 18.0188 22.6258 17.863 22.543L12.4458 19.6801C12.3071 19.612 12.1547 19.5766 12.0001 19.5766C11.8456 19.5766 11.6931 19.612 11.5544 19.6801L6.13727 22.543C5.98142 22.6258 5.80545 22.6633 5.62937 22.651C5.4533 22.6388 5.28419 22.5774 5.14129 22.4738C4.9984 22.3702 4.88745 22.2286 4.82108 22.065C4.7547 21.9015 4.73556 21.7226 4.76584 21.5487L5.81156 15.4287C5.83806 15.2796 5.82685 15.1262 5.77894 14.9824C5.73104 14.8387 5.64796 14.7093 5.53727 14.6059L1.1487 10.3716C1.01886 10.2483 0.927555 10.09 0.885836 9.91594C0.844118 9.74184 0.853778 9.55937 0.913647 9.39065C0.973516 9.22193 1.08103 9.07419 1.22315 8.96532C1.36528 8.85646 1.53592 8.79114 1.71441 8.77728L7.73156 7.88586C7.88344 7.86903 8.02826 7.81269 8.15158 7.72246C8.2749 7.63222 8.37242 7.51124 8.43441 7.37157L11.1601 1.86871C11.2344 1.70844 11.3529 1.57275 11.5017 1.47766C11.6506 1.38256 11.8235 1.33203 12.0001 1.33203C12.1768 1.33203 12.3497 1.38256 12.4985 1.47766C12.6474 1.57275 12.7659 1.70844 12.8401 1.86871Z" fill="#FFD644" stroke="#FFD644" stroke-linecap="round" stroke-linejoin="round"/>
</g>
<defs>
<clipPath id="clip0_491_8605">
<rect width="24" height="24" fill="white"/>
</clipPath>
</defs>
</svg>
